<?xml version="1.0" standalone="no"?>
<!DOCTYPE svg PUBLIC "-//W3C//DTD SVG 20010904//EN"
 "http://www.w3.org/TR/2001/REC-SVG-20010904/DTD/svg10.dtd">
<svg version="1.0" xmlns="http://www.w3.org/2000/svg"
 width="500.000000pt" height="500.000000pt" viewBox="0 0 500.000000 500.000000"
 preserveAspectRatio="xMidYMid meet">
<metadata>
Created by potrace 1.11, written by Peter Selinger 2001-2013
</metadata>
<g transform="translate(0.000000,500.000000) scale(0.100000,-0.100000)"
fill="#000000" stroke="none">
<path d="M0 2500 l0 -2500 2500 0 2500 0 0 2500 0 2500 -2500 0 -2500 0 0
-2500z m712 226 l3 -425 315 424 315 424 193 1 c105 0 192 -2 192 -5 0 -3
-114 -158 -254 -344 -140 -186 -259 -347 -266 -357 -11 -17 20 -80 254 -507
146 -267 266 -489 266 -492 0 -3 -87 -5 -192 -5 l-193 0 -184 340 c-102 187
-188 339 -192 338 -4 -2 -64 -78 -133 -170 l-126 -168 0 -170 0 -170 -170 0
-170 0 0 855 0 855 170 0 170 0 2 -424z m1528 1 l5 -418 314 420 313 421 195
0 195 0 -24 -32 c-14 -18 -135 -181 -271 -362 l-246 -328 39 -72 c21 -39 142
-260 269 -491 l229 -420 -191 -3 c-105 -1 -194 1 -198 5 -4 5 -89 160 -190
345 l-182 337 -129 -171 -128 -171 0 -174 0 -173 -175 0 -175 0 0 855 0 855
173 -2 172 -3 5 -418z m2356 341 c-153 -283 -676 -1272 -676 -1279 0 -5 162
-9 360 -9 l360 0 0 -170 0 -170 -660 0 c-363 0 -660 2 -660 4 0 2 160 303 355
669 195 366 358 672 361 681 6 14 -28 16 -355 16 l-361 0 0 170 0 170 661 0
660 0 -45 -82z"/>
</g>
</svg>
